# Blender 4.0.2
# www.blender.org
mtllib wallNarrowCen.mtl
o wallNarrowCorner
v -2.549735 -6.116750 -2.448717
v -2.549735 -6.116750 2.551283
v 2.450265 -6.116750 -2.448717
v 2.450265 -6.116750 2.551283
v 2.450265 5.683250 -2.448718
v 2.450265 3.983250 -2.098718
v 2.450265 5.683250 0.459639
v 2.450265 -1.616750 -2.098717
v 2.450265 4.983251 -2.448718
v 2.450265 6.083250 1.505460
v 2.450265 3.983251 2.201282
v 2.450265 -1.616750 2.201283
v 2.450265 -3.316750 2.551283
v 2.450265 -3.316750 -2.448717
v 2.450265 6.083250 0.459639
v 2.450265 6.533250 1.505460
v 2.450265 6.533250 2.551282
v 2.450265 4.983251 2.551282
v -2.549735 -3.316750 2.551283
v -2.549735 -3.316750 -2.448717
v -2.199735 -1.616750 -2.448717
v 2.100265 -1.616750 -2.448717
v -2.199735 3.983250 -2.448718
v 2.100265 3.983250 -2.448718
v -2.549735 4.983251 -2.448718
v -0.458092 5.683250 -2.448718
v -2.549735 6.533250 -2.448718
v -1.354686 6.083250 -2.448718
v -1.354686 6.533250 -2.448718
v -0.458092 6.083250 -2.448718
v -2.199735 -1.616750 2.201283
v -2.549735 4.983251 2.551282
v -2.199735 3.983251 2.201282
v -2.549735 6.983251 2.551282
v -2.549735 6.533250 0.051282
v -2.549735 6.983251 0.051282
v -0.049735 6.533250 2.551282
v -0.049735 6.983251 2.551282
v -0.458092 5.683250 0.459639
v -0.458092 6.083250 0.459639
v -0.049735 6.083250 1.505460
v -0.049735 6.083250 0.856233
v -0.854686 6.083250 0.856233
v -0.854686 6.083250 0.051282
v -1.354686 6.083250 0.051282
v -0.049735 6.533250 1.505460
v -1.354686 6.533250 0.051282
v -0.854686 6.983251 0.051282
v -0.854686 6.983251 0.856233
v -0.049735 6.983251 0.856233
vn -0.0000 -1.0000 -0.0000
vn 1.0000 -0.0000 -0.0000
vn -1.0000 -0.0000 -0.0000
vn -0.0000 -0.0000 -1.0000
vn -0.9795 0.2017 -0.0000
vn 0.6997 0.1441 -0.6997
vn 0.7071 -0.0000 -0.7071
vn 0.6864 -0.2402 -0.6864
vn -0.9439 -0.3304 -0.0000
vn -0.0000 -0.3304 0.9439
vn -0.0000 -0.0000 1.0000
vn -0.0000 1.0000 -0.0000
vn -0.0000 0.2017 0.9795
vt 0.000000 0.000000
vt 0.000000 19.685040
vt -19.685040 19.685040
vt -19.685040 0.000000
vt 18.307091 39.763779
vt 19.685040 46.456692
vt 8.234817 46.456692
vt 18.307091 17.716539
vt 19.685040 43.700790
vt 19.685040 0.000000
vt 4.117408 48.031502
vt 1.377953 39.763779
vt 1.377953 17.716539
vt 0.000000 11.023620
vt 0.000000 0.000000
vt 19.685040 11.023620
vt 8.234817 48.031502
vt 4.117408 49.803150
vt 0.000000 49.803150
vt 0.000000 43.700790
vt 0.000000 11.023620
vt -19.685040 11.023620
vt -19.685040 0.000000
vt 0.000000 0.000000
vt 0.000000 11.023620
vt -1.377953 17.716539
vt -18.307091 17.716539
vt -1.377953 39.763779
vt -18.307091 39.763779
vt 0.000000 43.700790
vt -19.685040 43.700790
vt -8.234817 46.456692
vt -0.000000 49.803150
vt -4.704919 48.031502
vt -4.704919 49.803150
vt -8.234817 48.031502
vt -19.685040 46.456692
vt -19.685040 10.797160
vt 0.000000 10.797160
vt -1.377953 17.630449
vt -19.685040 17.630449
vt -0.974360 13.661570
vt 0.000000 6.898105
vt 0.974360 13.661570
vt -0.974360 39.763779
vt -0.974360 17.716539
vt 0.974360 17.716539
vt 0.974360 39.763779
vt -0.974360 45.053150
vt 0.974360 45.053150
vt 0.000000 49.108940
vt -1.377953 37.076172
vt 0.000000 41.247349
vt -19.685040 41.247349
vt -19.685040 37.076172
vt 1.377953 37.076172
vt 19.685040 37.076172
vt 19.685040 41.247349
vt -9.842520 49.803150
vt -0.000000 51.574799
vt -9.842520 51.574799
vt 0.000000 43.700790
vt -19.685040 49.803150
vt 19.685040 49.803150
vt 9.842520 49.803150
vt 0.000000 51.574799
vt 9.842520 51.574799
vt -19.685040 48.031502
vt 19.685040 48.031502
vt 9.842520 6.673423
vt 9.842520 4.117408
vt 19.685040 4.117408
vt 19.685040 8.234817
vt 8.234817 8.234817
vt 6.673423 6.673423
vt 6.673423 9.842520
vt 8.234817 19.685040
vt 4.704919 9.842520
vt 4.704919 19.685040
vt 9.842520 -0.000000
vt 19.685040 -0.000000
vt -0.000000 19.685040
vt -0.000000 9.842520
vt -0.000000 9.842520
vt -0.000000 -0.000000
vt 9.842520 -0.000000
vt 6.673423 48.031502
vt 6.673423 51.574799
vt 0.000000 51.574799
vt 0.000000 49.803150
vt -9.842520 48.031502
vt -6.673423 48.031502
vt -6.673423 51.574799
vt 9.842520 48.031502
vt -0.000000 49.803150
vt -0.000000 51.574799
vt -0.000000 10.797160
vt 19.685040 10.797160
vt 19.685040 17.630449
vt 1.377953 17.630449
vt 19.685040 0.000000
vt -19.685040 39.763779
vt -19.685040 17.716539
vt 19.685040 17.716539
vt 19.685040 39.763779
vt 19.685040 19.685040
s 0
usemtl wall.009
f 2/1/1 1/2/1 3/3/1
f 3/3/1 4/4/1 2/1/1
f 6/5/2 5/6/2 7/7/2
f 7/7/2 8/8/2 6/5/2
f 6/5/2 9/9/2 5/6/2
f 3/10/2 8/8/2 7/7/2
f 3/10/2 7/7/2 10/11/2
f 3/10/2 10/11/2 11/12/2
f 3/10/2 11/12/2 12/13/2
f 3/10/2 12/13/2 13/14/2
f 13/14/2 4/15/2 3/10/2
f 3/10/2 14/16/2 8/8/2
f 10/11/2 7/7/2 15/17/2
f 11/12/2 10/11/2 16/18/2
f 11/12/2 16/18/2 17/19/2
f 17/19/2 18/20/2 11/12/2
f 2/1/3 19/21/3 20/22/3
f 20/22/3 1/4/3 2/1/3
f 3/23/4 1/24/4 20/25/4
f 20/25/4 14/22/4 3/23/4
f 20/25/4 21/26/4 14/22/4
f 21/26/4 22/27/4 14/22/4
f 21/26/4 23/28/4 22/27/4
f 23/28/4 24/29/4 22/27/4
f 23/28/4 25/30/4 24/29/4
f 25/30/4 9/31/4 24/29/4
f 25/30/4 26/32/4 9/31/4
f 25/30/4 27/33/4 26/32/4
f 27/33/4 28/34/4 26/32/4
f 27/33/4 29/35/4 28/34/4
f 26/32/4 28/34/4 30/36/4
f 9/31/4 26/32/4 5/37/4
f 20/38/5 19/39/5 31/40/5
f 31/40/5 21/41/5 20/38/5
f 8/42/6 14/43/6 22/44/6
f 6/45/7 8/46/7 22/47/7
f 22/47/7 24/48/7 6/45/7
f 6/49/8 24/50/8 9/51/8
f 33/52/9 32/53/9 25/54/9
f 25/54/9 23/55/9 33/52/9
f 32/53/10 33/56/10 11/57/10
f 11/57/10 18/58/10 32/53/10
f 35/59/3 34/60/3 36/61/3
f 34/60/3 35/59/3 25/31/3
f 25/31/3 32/62/3 34/60/3
f 35/59/3 27/63/3 25/31/3
f 32/62/11 18/9/11 17/64/11
f 17/64/11 37/65/11 32/62/11
f 37/65/11 34/66/11 32/62/11
f 37/65/11 38/67/11 34/66/11
f 7/37/4 39/32/4 40/36/4
f 40/36/4 15/68/4 7/37/4
f 40/17/2 39/7/2 26/6/2
f 26/6/2 30/69/2 40/17/2
f 42/70/12 41/71/12 10/72/12
f 42/70/12 10/72/12 15/73/12
f 42/70/12 15/73/12 40/74/12
f 43/75/12 42/70/12 40/74/12
f 40/74/12 44/76/12 43/75/12
f 44/76/12 40/74/12 30/77/12
f 45/78/12 44/76/12 30/77/12
f 30/77/12 28/79/12 45/78/12
f 46/71/12 37/80/12 17/81/12
f 17/81/12 16/72/12 46/71/12
f 29/79/12 27/82/12 35/83/12
f 35/83/12 47/78/12 29/79/12
f 48/76/12 36/84/12 34/85/12
f 34/85/12 49/75/12 48/76/12
f 34/85/12 38/86/12 49/75/12
f 38/86/12 50/70/12 49/75/12
f 46/18/2 41/11/2 42/87/2
f 46/18/2 42/87/2 50/88/2
f 46/18/2 50/88/2 38/89/2
f 38/89/2 37/90/2 46/18/2
f 16/63/4 10/68/4 41/91/4
f 41/91/4 46/59/4 16/63/4
f 42/91/4 43/92/4 49/93/4
f 49/93/4 50/61/4 42/91/4
f 49/88/2 43/87/2 44/94/2
f 44/94/2 48/67/2 49/88/2
f 48/93/4 44/92/4 45/34/4
f 45/34/4 47/35/4 48/93/4
f 47/35/4 35/95/4 48/93/4
f 35/95/4 36/96/4 48/93/4
f 47/65/2 45/94/2 28/69/2
f 28/69/2 29/64/2 47/65/2
f 19/97/13 13/98/13 12/99/13
f 12/99/13 31/100/13 19/97/13
f 2/1/11 4/101/11 13/16/11
f 13/16/11 19/21/11 2/1/11
usemtl wallDark.009
f 31/26/3 33/28/3 23/102/3
f 23/102/3 21/103/3 31/26/3
f 33/12/11 31/13/11 12/104/11
f 12/104/11 11/105/11 33/12/11
f 26/77/12 39/74/12 7/73/12
f 7/73/12 5/106/12 26/77/12
